<?xml version="1.0" encoding="UTF-8" standalone="no"?>
<svg
   xmlns:dc="http://purl.org/dc/elements/1.1/"
   xmlns:cc="http://creativecommons.org/ns#"
   xmlns:rdf="http://www.w3.org/1999/02/22-rdf-syntax-ns#"
   xmlns:svg="http://www.w3.org/2000/svg"
   xmlns="http://www.w3.org/2000/svg"
   xmlns:sodipodi="http://sodipodi.sourceforge.net/DTD/sodipodi-0.dtd"
   xmlns:inkscape="http://www.inkscape.org/namespaces/inkscape"
   fill="none"
   stroke-linecap="square"
   stroke-miterlimit="10"
   viewBox="0 0 348 348"
   version="1.1"
   id="svg44"
   sodipodi:docname="Desert Bus.svg"
   inkscape:version="0.92.3 (2405546, 2018-03-11)">
  <metadata
     id="metadata50">
    <rdf:RDF>
      <cc:Work
         rdf:about="">
        <dc:format>image/svg+xml</dc:format>
        <dc:type
           rdf:resource="http://purl.org/dc/dcmitype/StillImage" />
      </cc:Work>
    </rdf:RDF>
  </metadata>
  <defs
     id="defs48" />
  <sodipodi:namedview
     pagecolor="#ffffff"
     bordercolor="#666666"
     borderopacity="1"
     objecttolerance="10"
     gridtolerance="10"
     guidetolerance="10"
     inkscape:pageopacity="0"
     inkscape:pageshadow="2"
     inkscape:window-width="1301"
     inkscape:window-height="795"
     id="namedview46"
     showgrid="false"
     inkscape:zoom="0.72880595"
     inkscape:cx="174"
     inkscape:cy="174"
     inkscape:window-x="485"
     inkscape:window-y="96"
     inkscape:window-maximized="0"
     inkscape:current-layer="svg44" />
  <path
     stroke="#000"
     stroke-linecap="butt"
     stroke-linejoin="round"
     stroke-width="2"
     d="M5.5 5.2h337v337.6H5.5z"
     id="path4" />
  <path
     fill="#000"
     d="M134.3 15h74.3v57h-74.3z"
     id="path6" />
  <path
     fill="#fff"
     d="M155 43.5c0-2.7.3-5 .8-6.6a8.7 8.7 0 0 1 2.5-3.8 6.4 6.4 0 0 1 4.2-1.3c1.2 0 2.3.2 3.2.7 1 .5 1.7 1.2 2.3 2.2.6.9 1 2 1.4 3.4.4 1.3.5 3.1.5 5.4a21 21 0 0 1-.8 6.5c-.5 1.6-1.4 3-2.5 3.8-1 1-2.5 1.4-4.1 1.4-2.2 0-4-.8-5.2-2.4-1.5-2-2.3-5-2.3-9.3zm2.9 0c0 3.7.4 6.2 1.3 7.5.9 1.2 2 1.9 3.3 1.9 1.3 0 2.3-.7 3.2-2 1-1.2 1.4-3.7 1.4-7.4 0-3.8-.5-6.3-1.4-7.5-.9-1.3-2-1.9-3.3-1.9-1.3 0-2.3.5-3 1.6-1 1.4-1.5 4-1.5 7.8zm14.9 0c0-2.7.3-5 .8-6.6a8.7 8.7 0 0 1 2.5-3.8 6.4 6.4 0 0 1 4.2-1.3c1.2 0 2.3.2 3.2.7 1 .5 1.7 1.2 2.3 2.2.6.9 1 2 1.4 3.4.4 1.3.5 3.1.5 5.4 0 2.7-.2 4.8-.8 6.5-.5 1.6-1.4 3-2.5 3.8-1 1-2.5 1.4-4.1 1.4-2.2 0-4-.8-5.2-2.4-1.5-2-2.3-5-2.3-9.3zm2.9 0c0 3.7.4 6.2 1.3 7.5.9 1.2 2 1.9 3.3 1.9 1.3 0 2.3-.7 3.2-2 .9-1.2 1.3-3.7 1.3-7.4 0-3.8-.4-6.3-1.3-7.5-.9-1.3-2-1.9-3.3-1.9-1.3 0-2.3.5-3 1.6-1 1.4-1.5 4-1.5 7.8z"
     id="path8" />
  <path
     stroke="#000"
     stroke-linecap="butt"
     stroke-linejoin="round"
     stroke-width="2"
     d="M15.7 17h110v55h-110z"
     id="path10" />
  <path
     d="M15.7 72l39.7-54"
     id="path12" />
  <path
     stroke="#000"
     stroke-linecap="butt"
     stroke-linejoin="round"
     stroke-width="2"
     d="M15.7 72l39.7-54"
     id="path14" />
  <path
     d="M38 72l39.7-54"
     id="path16" />
  <path
     stroke="#000"
     stroke-linecap="butt"
     stroke-linejoin="round"
     stroke-width="2"
     d="M38 72l39.7-54"
     id="path18" />
  <path
     d="M60.3 72L100 18"
     id="path20" />
  <path
     stroke="#000"
     stroke-linecap="butt"
     stroke-linejoin="round"
     stroke-width="2"
     d="M60.3 72L100 18"
     id="path22" />
  <path
     d="M82.6 72l39.7-54"
     id="path24" />
  <path
     stroke="#000"
     stroke-linecap="butt"
     stroke-linejoin="round"
     stroke-width="2"
     d="M82.6 72l39.7-54m95-2h110v55h-110z"
     id="path26" />
  <path
     d="M217.3 71L257 16.9"
     id="path28" />
  <path
     stroke="#000"
     stroke-linecap="butt"
     stroke-linejoin="round"
     stroke-width="2"
     d="M217.3 71L257 16.9"
     id="path30" />
  <path
     d="M239.6 71l39.7-54.1"
     id="path32" />
  <path
     stroke="#000"
     stroke-linecap="butt"
     stroke-linejoin="round"
     stroke-width="2"
     d="M239.6 71l39.7-54.1"
     id="path34" />
  <path
     d="M262 71l39.6-54.1"
     id="path36" />
  <path
     stroke="#000"
     stroke-linecap="butt"
     stroke-linejoin="round"
     stroke-width="2"
     d="M262 71l39.6-54.1"
     id="path38" />
  <path
     d="M284.2 71L324 16.9"
     id="path40" />
  <path
     stroke="#000"
     stroke-linecap="butt"
     stroke-linejoin="round"
     stroke-width="2"
     d="M284.2 71L324 16.9"
     id="path42" />
  <path
     style="fill:none;stroke:#000000;stroke-width:1.10324991px;stroke-linecap:butt;stroke-linejoin:miter;stroke-opacity:1"
     d="M 153.52579,90.219204 C 6.1127599,216.62416 6.1127599,216.62416 6.1127599,216.62416"
     id="path4560"
     inkscape:connector-curvature="0" />
  <path
     style="opacity:1;vector-effect:none;fill:none;fill-opacity:1;stroke:#000000;stroke-width:1.18052781px;stroke-linecap:butt;stroke-linejoin:miter;stroke-miterlimit:10;stroke-dasharray:none;stroke-dashoffset:0;stroke-opacity:1"
     d="M 167.52579,90.219204 C 66.721313,301.87244 66.721313,301.87244 66.721313,301.87244"
     id="path4560-8"
     inkscape:connector-curvature="0" />
  <path
     style="fill:none;stroke:#000000;stroke-width:1.07352376px;stroke-linecap:butt;stroke-linejoin:miter;stroke-opacity:1"
     d="M 235.39712,90.185834 C 318.7295,301.90581 318.7295,301.90581 318.7295,301.90581"
     id="path4560-8-4"
     inkscape:connector-curvature="0" />
  <path
     style="fill:none;stroke:#000000;stroke-width:0.96413118px;stroke-linecap:butt;stroke-linejoin:miter;stroke-opacity:1"
     d="M 253.19471,88.515764 C 343.19082,246.64086 343.19082,246.64086 343.19082,246.64086"
     id="path4560-8-8"
     inkscape:connector-curvature="0" />
  <path
     style="fill:none;stroke:#000000;stroke-width:1px;stroke-linecap:butt;stroke-linejoin:miter;stroke-opacity:1"
     d="M 200.60241,93.783134 C 197.59036,123.3012 197.59036,123.3012 197.59036,123.3012"
     id="path4626"
     inkscape:connector-curvature="0" />
  <path
     style="fill:none;stroke:#000000;stroke-width:1px;stroke-linecap:butt;stroke-linejoin:miter;stroke-opacity:1"
     d="m 195.78313,143.78313 c -5.42168,50.60241 -5.42168,50.60241 -5.42168,50.60241"
     id="path4628"
     inkscape:connector-curvature="0" />
  <path
     style="fill:none;stroke:#000000;stroke-width:1px;stroke-linecap:butt;stroke-linejoin:miter;stroke-opacity:1"
     d="m 187.3494,216.67469 c -9.03615,84.93976 -9.03615,84.93976 -9.03615,84.93976"
     id="path4630"
     inkscape:connector-curvature="0" />
  <rect
     style="opacity:1;vector-effect:none;fill:#000000;fill-opacity:1;stroke:#000000;stroke-width:1.18052781px;stroke-linecap:butt;stroke-linejoin:miter;stroke-miterlimit:10;stroke-dasharray:none;stroke-dashoffset:0;stroke-opacity:1"
     id="rect4632"
     width="69.879517"
     height="17.469879"
     x="18.072289"
     y="314.86746" />
  <path
     style="opacity:1;vector-effect:none;fill:#000000;fill-opacity:1;stroke:#000000;stroke-width:1.18052781px;stroke-linecap:butt;stroke-linejoin:miter;stroke-miterlimit:10;stroke-dasharray:none;stroke-dashoffset:0;stroke-opacity:1"
     d="m 259.63858,315.1687 h 69.87952 v 17.46988 h -69.87952 z"
     id="rect4632-0" />
  <ellipse
     style="opacity:1;vector-effect:none;fill:#000000;fill-opacity:1;stroke:#000000;stroke-width:1.18052781px;stroke-linecap:butt;stroke-linejoin:miter;stroke-miterlimit:10;stroke-dasharray:none;stroke-dashoffset:0;stroke-opacity:1"
     id="path4649"
     cx="176.50603"
     cy="322.09637"
     rx="54.216869"
     ry="11.445783" />
</svg>
